# xmcd
#
# Track frame offsets:
# 183
# 11413
# 22683
# 35448
# 47245
# 59580
# 75405
# 91068
# 102973
# 113253
# 125318
# 138103
# 149488
# 159398
# 173430
# 186063
# 198838
# 209698
# 221155
# 234823
# 247685
# 258208
# 271793
# 283978
# 299503
#
# Disc length: 4155 seconds
#
#
# Revision: 3
# Processed by: cddbd v1.5.1PL0 Copyright (c) Steve Scherf et al.
# Submitted via: FreeRIP 2.942 
#
DISCID=4c103919
DTITLE=Various Artist - 25 Blues 'n' Soul Greats
DYEAR=1900
DGENRE=Blues
TTITLE0=Howlin' Wolf - Reed Rooster
TTITLE1=John Lee Hooker - Boom Boom
TTITLE2=Billie Holiday - God Bless The Child
TTITLE3=Muddy Waters - You Gonna Miss Me
TTITLE4=Little Walter - Last Night
TTITLE5=Sonny Boy Williamson - You Killing Me
TTITLE6=B. B. King - Walkin' And Cryin'
TTITLE7=Leadbelly - Boll Weevil Blues
TTITLE8=Howlin' Wolf - Shake For Me
TTITLE9=John Lee Hooker - Frisco Blues
TTITLE10=Billie Holiday - Don't Explain
TTITLE11=Elmore James - Look On Yonder Wall
TTITLE12=Muddy Waters - Mean Red Spider
TTITLE13=Little Walter - Blues With A Feeling
TTITLE14=Howlin' Wolf - Spoonful
TTITLE15=B. B. King - Please Love Me
TTITLE16=John Lee Hooker - No Shoes
TTITLE17=Billie Holiday - I Loves You Porgy
TTITLE18=Leadbelly - The Gallis Pole
TTITLE19=Sonny Boy Williamson - Keep It To Yourself
TTITLE20=Muddy Waters - Diamonds At Your Feet
TTITLE21=Little Walter - Can't Hold Out Much Longer
TTITLE22=John Lee Hooker - I'm In The Mood
TTITLE23=Howlin' Wolf - Goin' Down Slow
TTITLE24=Jimmy Reed - Little Rain
EXTD=Part of a collection called 100 Blues 'n' Soul Greats\n\nEntered by \nholgie@hotmail.com
EXTT0=
EXTT1=
EXTT2=
EXTT3=
EXTT4=
EXTT5=
EXTT6=
EXTT7=
EXTT8=
EXTT9=
EXTT10=
EXTT11=
EXTT12=
EXTT13=
EXTT14=
EXTT15=
EXTT16=
EXTT17=
EXTT18=
EXTT19=
EXTT20=
EXTT21=
EXTT22=
EXTT23=
EXTT24=
PLAYORDER=
